<?xml version="1.0" encoding="UTF-8" standalone="no"?>
<!-- Created with Inkscape (http://www.inkscape.org/) -->

<svg
   version="1.1"
   id="svg9"
   xml:space="preserve"
   width="755.63245"
   height="446.37366"
   viewBox="0 0 755.63244 446.37366"
   sodipodi:docname="jinnjya.svg"
   inkscape:version="1.1.1 (3bf5ae0d25, 2021-09-20)"
   xmlns:inkscape="http://www.inkscape.org/namespaces/inkscape"
   xmlns:sodipodi="http://sodipodi.sourceforge.net/DTD/sodipodi-0.dtd"
   xmlns="http://www.w3.org/2000/svg"
   xmlns:svg="http://www.w3.org/2000/svg"><defs
     id="defs13"><clipPath
       clipPathUnits="userSpaceOnUse"
       id="clipPath521"><rect
         style="fill:#0000ff;fill-rule:evenodd;stroke-width:7.5"
         id="rect523"
         width="5667.2437"
         height="3347.8025"
         x="330.27643"
         y="-4263.5688"
         transform="scale(1,-1)" /></clipPath></defs><sodipodi:namedview
     id="namedview11"
     pagecolor="#ffffff"
     bordercolor="#666666"
     borderopacity="1.0"
     inkscape:pageshadow="2"
     inkscape:pageopacity="0.0"
     inkscape:pagecheckerboard="0"
     showgrid="false"
     inkscape:zoom="0.99916294"
     inkscape:cx="412.84558"
     inkscape:cy="184.15415"
     inkscape:window-width="1920"
     inkscape:window-height="986"
     inkscape:window-x="-11"
     inkscape:window-y="-11"
     inkscape:window-maximized="1"
     inkscape:current-layer="g15" /><g
     id="g15"
     inkscape:groupmode="layer"
     inkscape:label="ink_ext_XXXXXX"
     transform="matrix(1.3333333,0,0,-1.3333333,-4.003345,760.63668)"><g
       id="g17"
       transform="matrix(0.1,0,0,0.1,-30.025134,144.12064)"
       clip-path="url(#clipPath521)"><path
         d="m 1220.5,5475.73 -37.07,-106.12 c -24.26,32.79 -52.14,49.2 -83.62,49.2 -17.5,0 -26.25,-6.62 -26.25,-19.86 0,-4.12 2.76,-8.31 8.27,-12.58 5.52,-4.26 19.97,-10.96 43.36,-20.07 25.73,-10.15 45.56,-19.39 59.45,-27.69 13.9,-8.31 24.31,-18.94 31.22,-31.88 6.92,-12.94 10.38,-28.02 10.38,-45.23 0,-36.04 -13.69,-63.51 -41.04,-82.4 -27.36,-18.9 -67.59,-28.36 -120.69,-28.36 -59.56,0 -110.901,8.46 -153.99,25.38 l 36.398,112.52 c 10.594,-16.48 23.719,-29.57 39.383,-39.27 15.669,-9.71 30.699,-14.57 45.119,-14.57 7.06,0 12.98,1.84 17.76,5.52 4.78,3.68 7.17,8.16 7.17,13.46 0,4.99 -2.32,9.77 -6.95,14.34 -4.63,4.56 -16.88,10.88 -36.73,18.97 -17.947,7.21 -32.807,14.23 -44.568,21.07 -11.774,6.84 -21.993,16.58 -30.668,29.23 -8.684,12.65 -13.02,28.61 -13.02,47.88 0,37.36 13.606,65.53 40.816,84.5 27.211,18.98 67.36,28.46 120.46,28.46 48.54,0 93.48,-7.5 134.81,-22.5"
         style="fill:#303032;fill-opacity:1;fill-rule:nonzero;stroke:none"
         id="path19" /><path
         d="m 1427.22,5369.16 c -9.56,0 -17.5,-3.34 -23.83,-10.03 -6.32,-6.7 -9.48,-15.12 -9.48,-25.26 0,-10.16 3.16,-18.58 9.48,-25.26 6.33,-6.7 14.27,-10.04 23.83,-10.04 9.71,0 17.73,3.34 24.05,10.04 6.32,6.68 9.49,15.1 9.49,25.26 0,10.14 -3.17,18.56 -9.49,25.26 -6.32,6.69 -14.34,10.03 -24.05,10.03 z m 0,-218.42 c -48.09,0 -88.88,16.88 -122.34,50.64 -33.46,33.75 -50.19,74.9 -50.19,123.44 0,48.39 16.73,89.39 50.19,123 33.46,33.61 74.25,50.41 122.34,50.41 48.24,0 89.1,-16.8 122.56,-50.41 33.46,-33.61 50.2,-74.61 50.2,-123 0,-48.54 -16.74,-89.69 -50.2,-123.44 -33.46,-33.76 -74.32,-50.64 -122.56,-50.64"
         style="fill:#303032;fill-opacity:1;fill-rule:nonzero;stroke:none"
         id="path21" /><path
         d="m 1981.22,5240.76 v -84.5 h -354.55 l 154.88,252.18 h -142.3 v 84.5 h 349.69 l -154.88,-252.18 h 147.16"
         style="fill:#303032;fill-opacity:1;fill-rule:nonzero;stroke:none"
         id="path23" /><path
         d="m 2188.39,5292.61 h 55.15 l -27.57,83.62 z m -46.55,-136.35 h -149.15 l 116.93,336.68 h 212.47 l 116.93,-336.68 H 2290.1 l -19.42,56.92 h -109.43 l -19.41,-56.92"
         style="fill:#303032;fill-opacity:1;fill-rule:nonzero;stroke:none"
         id="path25" /><path
         d="m 2473.66,5156.26 v 336.68 h 148.92 v -336.68 h -148.92"
         style="fill:#303032;fill-opacity:1;fill-rule:nonzero;stroke:none"
         id="path27" /><path
         d="m 3002.72,5462.71 -62.43,-118.92 c -18.24,6.33 -38.39,9.49 -60.46,9.49 -31.62,0 -47.43,-8.6 -47.43,-25.82 0,-8.23 4.41,-14.67 13.23,-19.3 8.83,-4.63 21.41,-6.95 37.73,-6.95 22.06,0 41.04,3.98 56.93,11.92 l 62.43,-127.52 c -17.65,-10.59 -38.97,-19.06 -63.98,-25.38 -25,-6.32 -48.91,-9.49 -71.7,-9.49 -57.22,0 -102.78,16.51 -136.68,49.53 -33.9,33.02 -50.85,73.66 -50.85,121.9 0,51.04 17.64,93.14 52.95,126.31 35.29,33.16 80.16,49.75 134.58,49.75 23.53,0 47.84,-3.19 72.92,-9.6 25.07,-6.39 46,-15.04 62.76,-25.92"
         style="fill:#303032;fill-opacity:1;fill-rule:nonzero;stroke:none"
         id="path29" /><path
         d="m 3089.36,5161.16 c -7.6,0 -11.4,2.55 -11.4,7.67 0,1.6 0.42,4.03 1.27,7.3 0.84,3.28 1.73,5.92 2.66,7.93 2.53,5.78 4.85,9.56 6.96,11.32 2.44,2.18 6.1,4.11 10.95,5.79 4.85,1.68 9.13,2.52 12.85,2.52 5.23,0 7.84,-3.03 7.84,-9.06 0,-5.7 -1.64,-12.67 -4.93,-20.89 -0.85,-2.35 -1.84,-4.09 -2.98,-5.22 -1.14,-1.13 -3.01,-2.2 -5.63,-3.21 -7.17,-2.77 -13.04,-4.15 -17.59,-4.15"
         style="fill:#303032;fill-opacity:1;fill-rule:nonzero;stroke:none"
         id="path31" /><path
         d="m 3199.24,5283.19 c 6.39,-0.25 11.48,-2.1 15.27,-5.55 3.79,-3.45 5.68,-8.08 5.68,-13.89 0,-5.04 -1.45,-10.13 -4.36,-15.26 -2.9,-5.13 -6.56,-9.35 -10.98,-12.62 -4.41,-3.28 -8.85,-4.92 -13.31,-4.92 -2.61,0 -3.91,0.92 -3.91,2.77 0,0.67 0.5,2.15 1.51,4.42 3.28,5.55 4.92,11.94 4.92,19.18 0,3.62 -0.42,5.43 -1.26,5.43 -1.18,0 -2.86,-1.52 -5.05,-4.55 -2.18,-3.02 -4.03,-6.6 -5.55,-10.72 -2.61,-6.48 -4.77,-13.38 -6.5,-20.7 -1.72,-7.32 -2.58,-13.5 -2.58,-18.55 0,-5.72 0.86,-10.22 2.58,-13.5 1.73,-3.28 4.14,-4.93 7.26,-4.93 2.86,0 6.69,1.52 11.48,4.55 4.8,3.03 9.34,6.77 13.63,11.23 1.77,2.27 3.33,3.41 4.67,3.41 2.02,0 3.03,-1.14 3.03,-3.41 0,-10.35 -4.04,-19.73 -12.11,-28.14 -5.56,-5.56 -11.93,-10.03 -19.12,-13.44 -7.2,-3.41 -13.66,-5.11 -19.37,-5.11 -10.02,0 -18.35,3.15 -24.99,9.46 -6.65,6.31 -9.97,14.26 -9.97,23.85 0,9.59 2.12,19.67 6.37,30.23 4.25,10.55 10.06,20.59 17.42,30.09 7.36,9.51 15.71,17.46 25.05,23.86 6.73,4.54 13.29,6.81 19.69,6.81 h 0.5"
         style="fill:#303032;fill-opacity:1;fill-rule:nonzero;stroke:none"
         id="path33" /><path
         d="m 3313.7,5288.36 c 12.54,0 18.8,-1.47 18.8,-4.41 0,-3.37 -2.82,-5.18 -8.45,-5.43 -6.82,-0.42 -13.17,-2.35 -19.06,-5.81 -5.89,-3.44 -11.13,-8.16 -15.71,-14.12 -4.59,-5.98 -8.16,-12.71 -10.73,-20.2 -2.56,-7.49 -3.85,-15.4 -3.85,-23.72 0,-9.18 2.15,-16.56 6.44,-22.15 4.29,-5.6 9.89,-8.39 16.78,-8.39 6.4,0 11.99,3.28 16.79,9.84 4.79,6.56 7.19,14.22 7.19,22.97 0,7.15 -1.49,13.86 -4.48,20.13 -2.99,6.26 -7.34,11.54 -13.06,15.84 -2.44,1.93 -3.66,3.32 -3.66,4.16 0,1.18 1.72,2.98 5.17,5.43 3.87,2.6 8.21,4.79 13,6.56 4.8,1.76 8.84,2.64 12.12,2.64 3.79,0 7.38,-0.98 10.79,-2.96 3.41,-1.98 6.41,-4.79 9.02,-8.45 2.61,-3.66 4.61,-7.87 6,-12.62 1.38,-4.76 2.08,-9.83 2.08,-15.21 0,-8.92 -1.69,-17.73 -5.05,-26.44 -3.37,-8.7 -7.79,-15.75 -13.25,-21.14 -7.07,-6.81 -15.58,-12.38 -25.56,-16.72 -9.97,-4.33 -19.45,-6.5 -28.45,-6.5 -8.75,0 -17.44,1.52 -26.06,4.55 -8.63,3.02 -15.46,7.02 -20.51,11.99 -6.73,6.73 -10.1,16.27 -10.1,28.64 0,9.76 2.4,19.52 7.2,29.28 4.79,9.76 11.29,18.61 19.5,26.57 8.2,7.94 17.24,14.21 27.13,18.79 9.88,4.59 19.87,6.88 29.97,6.88"
         style="fill:#303032;fill-opacity:1;fill-rule:nonzero;stroke:none"
         id="path35" /><path
         d="m 3507.29,5207.09 -34.46,-35.33 c -4.46,-4.46 -8.05,-7.51 -10.79,-9.15 -2.73,-1.64 -5.74,-2.46 -9.02,-2.46 -5.13,0 -9.45,1.91 -12.94,5.74 -3.49,3.82 -5.23,8.52 -5.23,14.07 0,3.45 0.52,7.21 1.58,11.29 1.05,4.09 3.13,10.17 6.24,18.24 0.59,1.68 1.16,3.14 1.71,4.36 0.54,1.21 0.98,2.24 1.32,3.09 l -0.5,0.5 c -8.16,-8.58 -16.16,-17.62 -23.98,-27.13 -6.56,-7.83 -11.78,-13.67 -15.65,-17.54 -3.87,-3.87 -7.36,-6.77 -10.47,-8.71 -3.12,-1.93 -5.9,-2.9 -8.33,-2.9 -5.47,0 -9.81,2.14 -13,6.43 -3.2,4.29 -4.8,10.14 -4.8,17.55 0,9.33 4.04,24.43 12.12,45.3 7.23,18.51 12.83,30.92 16.78,37.23 5.8,8.75 12.44,13.12 19.93,13.12 4.53,0 8.3,-1.07 11.28,-3.21 2.99,-2.15 4.48,-4.94 4.48,-8.39 0,-6.31 -2.39,-15.94 -7.16,-28.88 -1.84,-4.8 -3.73,-10.22 -5.66,-16.27 l 0.51,-0.5 c 3.11,3.44 8.11,9.37 15,17.78 11.85,14.63 20.81,24.59 26.87,29.89 7.83,7.23 14.98,10.84 21.46,10.84 2.86,0 5.6,-0.96 8.2,-2.9 2.61,-1.94 4.7,-4.52 6.25,-7.76 1.56,-3.24 2.34,-6.63 2.34,-10.16 0,-3.62 -2.6,-12.88 -7.8,-27.78 -1.09,-3.11 -1.92,-5.56 -2.51,-7.32 -0.59,-1.77 -1.13,-3.28 -1.64,-4.55 l 0.63,-0.5 c 1.18,1.17 2.23,2.22 3.15,3.15 0.93,0.93 1.96,1.92 3.09,2.97 1.13,1.05 2.21,2.04 3.21,2.97 2.27,2.19 7.98,7.96 17.14,17.3 6.05,6.73 10.79,11.34 14.24,13.82 3.45,2.48 6.78,3.73 9.97,3.73 5.22,0 9.19,-1.79 11.93,-5.37 2.73,-3.57 4.1,-8.85 4.1,-15.83 0,-4.29 -0.67,-11.07 -2.02,-20.32 -1.18,-10.43 -2,-18.61 -2.46,-24.54 -0.47,-5.94 -0.7,-10.08 -0.7,-12.44 0,-1.77 0.11,-4.02 0.32,-6.75 0.21,-2.73 0.57,-5.66 1.08,-8.77 0.5,-3.11 1.17,-6.56 2.01,-10.34 1.01,-4.63 1.68,-8.25 2.02,-10.86 -0.67,-3.03 -2.88,-5.59 -6.62,-7.69 -3.75,-2.11 -7.81,-3.16 -12.18,-3.16 -6.9,0 -13.38,3.11 -19.43,9.34 -2.7,2.86 -4.78,5.74 -6.25,8.64 -1.47,2.91 -2.53,6.35 -3.16,10.35 -0.63,3.99 -0.95,9.27 -0.95,15.84 0,4.29 0.51,13.17 1.52,26.63 l -0.5,0.5 -2.27,-3.16"
         style="fill:#303032;fill-opacity:1;fill-rule:nonzero;stroke:none"
         id="path37" /><path
         d="m 530.113,5594.47 c -16.008,-7.3 -26.093,-19.53 -22.547,-27.32 0.981,-2.14 2.887,-3.72 5.469,-4.74 0.774,8.21 11.766,19.04 27.461,26.2 8.621,3.93 17.137,6.06 24.184,6.39 -4.77,6.4 -19.602,6.3 -34.567,-0.53"
         style="fill:#221b19;fill-opacity:1;fill-rule:nonzero;stroke:none"
         id="path39" /><path
         d="m 726.09,5291.43 c 6.055,-74.13 -12.012,-138.68 -51.18,-185.2 -23.969,-57.11 -101.019,-75.78 -180.867,-77.13 -140.59,5.98 -264.031,79.78 -189.746,206.8 9.137,15.62 -3.363,36.48 -3.363,55.53 0,144.87 64.949,262.32 193.109,262.32 128.152,0 220.25,-117.92 232.047,-262.32"
         style="fill:#efc67c;fill-opacity:1;fill-rule:nonzero;stroke:none"
         id="path41" /><path
         d="m 760.758,5200.3 c -3.313,-37.66 -50.297,-94.05 -81.035,-91.34 -30.735,2.7 -33.586,63.46 -30.274,101.12 3.309,37.67 30.906,66.01 61.645,63.31 30.738,-2.69 52.972,-35.42 49.664,-73.09"
         style="fill:#efc67c;fill-opacity:1;fill-rule:nonzero;stroke:none"
         id="path43" /><path
         d="m 515.766,5582.56 c -146.661,0 -269.258,-105.47 -277.782,-253.05 -4.953,-112.73 1.547,-229.76 91.981,-251.44 -33.445,22.92 -42.426,59.69 -44.902,71.13 -2.481,11.44 -6.606,42.8 25.281,89.14 5.094,14.61 9.304,32.54 18.926,43.22 -1.575,10.49 -1.004,23.43 2.113,37.01 6.547,28.53 22.008,49.7 35.597,49.65 -6.953,-10.36 -13.035,-24.73 -16.804,-41.17 -2.418,-10.53 -3.59,-20.7 -3.676,-29.92 19.32,14.31 43.828,23.78 72.156,29.11 -0.027,7.81 0.91,16.38 2.926,25.23 6.52,28.55 21.953,49.73 35.547,49.7 -6.938,-10.37 -13.008,-24.75 -16.758,-41.19 -2.496,-10.93 -3.66,-21.48 -3.656,-30.96 14.109,1.72 29.004,2.56 44.551,2.56 29.922,0 58.242,-3.06 83.476,-9.69 -0.711,2.66 -1.34,5.41 -1.883,8.21 -5.55,28.75 0.032,54.36 12.485,59.81 -2.168,-12.28 -1.922,-27.89 1.273,-44.44 2.168,-11.22 5.43,-21.53 9.356,-30.32 26.156,-9.82 43.75,-35.01 60.84,-66.99 28.082,-36.34 33.683,-70.75 33.683,-102.23 0,-38.96 -23.773,-78.64 -53.937,-89.72 67.511,-28.48 166.964,121.23 146.621,252.24 0,144.03 -110.746,274.11 -257.414,274.11"
         style="fill:#221b19;fill-opacity:1;fill-rule:nonzero;stroke:none"
         id="path45" /><path
         d="m 515.406,5594.05 c 19.707,-17.42 31.278,-37.74 25.844,-45.39 -1.488,-2.1 -4.117,-3.02 -7.543,-2.89 -0.07,10.45 -12.953,29.52 -32.285,46.61 -10.609,9.37 -21.301,16.5 -30.301,20.64 6.828,5.3 25.848,-2.68 44.285,-18.97"
         style="fill:#221b19;fill-opacity:1;fill-rule:nonzero;stroke:none"
         id="path47" /><path
         d="m 449.785,5181.81 c 3.403,2.5 7.129,4.21 10.942,5.18 -6.883,2.08 -14.414,1.13 -20.414,-3.28 -10.473,-7.7 -12.305,-23 -4.086,-34.17 1.058,-1.45 2.242,-2.74 3.507,-3.91 -5.746,12.15 -1.812,27.45 10.051,36.18"
         style="fill:#231f20;fill-opacity:1;fill-rule:nonzero;stroke:none"
         id="path49" /><path
         d="m 513.699,5089.12 c 0,-15.19 -11.773,-27.5 -26.301,-27.5 -14.531,0 -26.308,12.31 -26.308,27.5 0,15.18 11.777,27.49 26.308,27.49 14.528,0 26.301,-12.31 26.301,-27.49"
         style="fill:#dc3134;fill-opacity:1;fill-rule:nonzero;stroke:none"
         id="path51" /><path
         d="m 427.613,5239.1 c 0,-20.97 -9.269,-37.97 -20.703,-37.97 -11.43,0 -20.703,17 -20.703,37.97 0,20.97 9.273,37.97 20.703,37.97 11.434,0 20.703,-17 20.703,-37.97"
         style="fill:#231f20;fill-opacity:1;fill-rule:nonzero;stroke:none"
         id="path53" /><path
         d="m 568.746,5236.62 c 0,-20.97 -9.269,-37.97 -20.703,-37.97 -11.434,0 -20.699,17 -20.699,37.97 0,20.97 9.265,37.97 20.699,37.97 11.434,0 20.703,-17 20.703,-37.97"
         style="fill:#231f20;fill-opacity:1;fill-rule:nonzero;stroke:none"
         id="path55" /><path
         d="m 618.551,5283.27 c -1.379,0 -2.699,0.77 -3.348,2.09 -14.051,28.87 -48.969,40.93 -77.836,26.87 -1.84,-0.9 -4.066,-0.13 -4.965,1.72 -0.898,1.84 -0.132,4.07 1.715,4.97 32.555,15.84 71.93,2.25 87.774,-30.3 0.898,-1.85 0.129,-4.07 -1.715,-4.97 -0.524,-0.26 -1.078,-0.38 -1.625,-0.38"
         style="fill:#221b19;fill-opacity:1;fill-rule:nonzero;stroke:none"
         id="path57" /><path
         d="m 342.324,5285.75 c -0.547,0 -1.101,0.12 -1.625,0.38 -1.847,0.89 -2.613,3.12 -1.715,4.96 7.68,15.79 21.039,27.62 37.61,33.35 16.566,5.72 34.383,4.63 50.168,-3.05 1.843,-0.9 2.613,-3.12 1.715,-4.96 -0.903,-1.85 -3.129,-2.62 -4.969,-1.72 -13.996,6.81 -29.797,7.77 -44.488,2.7 -14.696,-5.07 -26.54,-15.57 -33.352,-29.57 -0.645,-1.32 -1.969,-2.09 -3.344,-2.09"
         style="fill:#221b19;fill-opacity:1;fill-rule:nonzero;stroke:none"
         id="path59" /><path
         d="m 4912.13,5093.23 h -9.96 v 38.62 c 0,10.67 -3.83,19.91 -15.11,19.91 -7.68,0 -17.27,-6.35 -17.27,-18.35 v -40.18 h -9.96 v 95.95 h 9.96 v -40.66 h 0.24 c 4.32,7.2 12.24,11.64 20.26,11.64 8.05,0 21.84,-4.92 21.84,-27.11 v -39.82"
         style="fill:#0e0f0f;fill-opacity:1;fill-rule:nonzero;stroke:none"
         id="path61" /><path
         d="m 4940.12,5170.47 9.83,3.36 v -15.23 h 16.91 v -7.8 h -16.91 v -37.78 c 0,-8.27 2.51,-12.83 8.88,-12.83 2.99,0 5.04,0.36 6.72,0.96 l 0.59,-7.68 c -2.16,-0.95 -5.51,-1.56 -9.71,-1.56 -15.83,0 -16.31,14.39 -16.31,21.35 v 37.54 h -10.08 v 7.8 h 10.08 v 11.87"
         style="fill:#0e0f0f;fill-opacity:1;fill-rule:nonzero;stroke:none"
         id="path63" /><path
         d="m 4988.59,5170.47 9.85,3.36 v -15.23 h 16.9 v -7.8 h -16.9 v -37.78 c 0,-8.27 2.51,-12.83 8.86,-12.83 3,0 5.04,0.36 6.72,0.96 l 0.61,-7.68 c -2.17,-0.95 -5.53,-1.56 -9.73,-1.56 -15.82,0 -16.31,14.39 -16.31,21.35 v 37.54 h -10.07 v 7.8 h 10.07 v 11.87"
         style="fill:#0e0f0f;fill-opacity:1;fill-rule:nonzero;stroke:none"
         id="path65" /><path
         d="m 5044.39,5119.26 c 0,-12.72 9.48,-19.43 18.34,-19.43 12.84,0 19.92,11.03 19.92,26.63 0,13.54 -6.84,25.54 -19.54,25.54 -11.17,0 -18.72,-10.79 -18.72,-20.27 z m -0.6,28.3 c 4.55,8.03 12.11,12.6 22.3,12.6 15.47,0 26.63,-13.32 26.63,-33.34 0,-23.99 -14.03,-35.03 -28.42,-35.03 -8.64,0 -15.83,3.96 -19.67,10.44 h -0.24 v -35.74 h -9.96 v 71.12 c 0,8.52 -0.23,15.11 -0.47,21.1 h 8.99 l 0.6,-11.15 h 0.24"
         style="fill:#0e0f0f;fill-opacity:1;fill-rule:nonzero;stroke:none"
         id="path67" /><path
         d="m 5111.11,5099.35 c 0,4.44 2.88,7.68 7.08,7.68 4.32,0 7.08,-3.24 7.08,-7.68 0,-4.2 -2.76,-7.56 -7.08,-7.56 -4.56,0 -7.08,3.6 -7.08,7.56 z m 0,49.05 c 0,4.44 2.88,7.68 7.08,7.68 4.32,0 7.08,-3.24 7.08,-7.68 0,-4.32 -2.76,-7.67 -7.08,-7.67 -4.56,0 -7.08,3.72 -7.08,7.67"
         style="fill:#0e0f0f;fill-opacity:1;fill-rule:nonzero;stroke:none"
         id="path69" /><path
         d="m 5143.88,5087.84 h -8.04 l 38.02,98.22 h 8.27 l -38.25,-98.22"
         style="fill:#0e0f0f;fill-opacity:1;fill-rule:nonzero;stroke:none"
         id="path71" /><path
         d="m 5195.6,5087.84 h -8.04 l 38.02,98.22 h 8.27 l -38.25,-98.22"
         style="fill:#0e0f0f;fill-opacity:1;fill-rule:nonzero;stroke:none"
         id="path73" /><path
         d="m 5279.94,5148.64 c -2.4,1.56 -6.84,3.84 -12.71,3.84 -7.21,0 -11.04,-4.44 -11.04,-9.72 0,-5.63 3.71,-8.27 12.11,-11.87 10.56,-4.32 16.67,-9.84 16.67,-19.67 0,-11.63 -8.88,-19.31 -23.14,-19.31 -6.48,0 -12.72,1.8 -17.16,4.44 l 2.76,7.68 c 3.48,-2.04 9.11,-4.44 14.76,-4.44 8.75,0 13.06,4.68 13.06,10.55 0,6.12 -3.47,9.48 -12.11,12.95 -11.03,4.45 -16.67,10.56 -16.67,18.48 0,10.19 8.16,18.59 21.35,18.59 6.24,0 11.52,-1.8 14.99,-3.96 l -2.87,-7.56"
         style="fill:#0e0f0f;fill-opacity:1;fill-rule:nonzero;stroke:none"
         id="path75" /><path
         d="m 5331.65,5152.36 c -14.15,0 -20.03,-13.91 -20.03,-26.5 0,-14.52 8.04,-26.27 19.79,-26.27 11.87,0 20.15,11.75 20.15,26.5 0,11.64 -5.64,26.27 -19.91,26.27 z m 30.11,-25.9 c 0,-24.35 -16.08,-34.67 -30.59,-34.67 -16.79,0 -29.74,12.59 -29.74,33.7 0,22.31 13.91,34.67 30.58,34.67 17.87,0 29.75,-13.68 29.75,-33.7"
         style="fill:#0e0f0f;fill-opacity:1;fill-rule:nonzero;stroke:none"
         id="path77" /><path
         d="m 5425.24,5158.6 v -6.36 l -29.86,-40.78 c -2.52,-3.48 -4.91,-6.59 -7.56,-9.83 v -0.24 h 37.79 v -8.16 h -50.26 v 6 l 30.1,41.02 c 2.64,3.48 5.04,6.59 7.79,9.95 v 0.24 h -35.13 v 8.16 h 47.13"
         style="fill:#0e0f0f;fill-opacity:1;fill-rule:nonzero;stroke:none"
         id="path79" /><path
         d="m 5476.73,5127.17 c -12.35,0 -27.82,-1.79 -27.82,-15.59 0,-8.39 5.27,-12.11 11.27,-12.11 9.71,0 16.55,7.44 16.55,15.35 z m 9.83,-18.35 c 0,-5.39 0.12,-11.03 0.96,-15.59 h -9.11 l -0.97,8.4 h -0.35 c -3.36,-5.16 -10.08,-9.84 -19.32,-9.84 -12.47,0 -19.06,9.12 -19.06,18.59 0,15.71 13.67,24.23 37.89,24.11 0,5.51 0,17.99 -14.86,17.99 -5.65,0 -11.52,-1.56 -15.96,-4.68 l -2.4,6.84 c 5.28,3.48 12.6,5.52 19.92,5.52 18.46,0 23.26,-13.07 23.26,-26.03 v -25.31"
         style="fill:#0e0f0f;fill-opacity:1;fill-rule:nonzero;stroke:none"
         id="path81" /><path
         d="m 5521.74,5093.23 h -9.95 v 65.37 h 9.95 z m -5.04,76.88 c -3.83,0 -6.47,3 -6.47,6.84 0,3.71 2.76,6.71 6.6,6.71 3.95,0 6.47,-3 6.47,-6.71 0,-4.2 -2.75,-6.84 -6.6,-6.84"
         style="fill:#0e0f0f;fill-opacity:1;fill-rule:nonzero;stroke:none"
         id="path83" /><path
         d="m 5591.68,5095.63 c -2.87,-1.44 -9.36,-3.72 -17.74,-3.72 -18.72,0 -31.07,13.32 -31.07,33.34 0,20.16 13.32,34.91 33.46,34.91 7.32,0 13.2,-2.16 15.72,-3.48 l -2.52,-8.04 c -2.76,1.56 -7.08,3.36 -13.44,3.36 -15.11,0 -23.02,-12.11 -23.02,-26.14 0,-15.84 9.47,-25.79 22.66,-25.79 6.48,0 10.92,1.8 14.15,3.23 l 1.8,-7.67"
         style="fill:#0e0f0f;fill-opacity:1;fill-rule:nonzero;stroke:none"
         id="path85" /><path
         d="m 5608.87,5099.35 c 0,4.56 3,7.79 7.19,7.79 4.2,0 7.08,-3.23 7.08,-7.79 0,-4.32 -2.76,-7.56 -7.2,-7.56 -4.55,0 -7.07,3.6 -7.07,7.56"
         style="fill:#0e0f0f;fill-opacity:1;fill-rule:nonzero;stroke:none"
         id="path87" /><path
         d="m 5687.92,5095.63 c -2.88,-1.44 -9.36,-3.72 -17.74,-3.72 -18.72,0 -31.08,13.32 -31.08,33.34 0,20.16 13.32,34.91 33.47,34.91 7.31,0 13.19,-2.16 15.71,-3.48 l -2.52,-8.04 c -2.75,1.56 -7.07,3.36 -13.44,3.36 -15.1,0 -23.02,-12.11 -23.02,-26.14 0,-15.84 9.47,-25.79 22.67,-25.79 6.48,0 10.91,1.8 14.15,3.23 l 1.8,-7.67"
         style="fill:#0e0f0f;fill-opacity:1;fill-rule:nonzero;stroke:none"
         id="path89" /><path
         d="m 5733.29,5152.36 c -14.15,0 -20.03,-13.91 -20.03,-26.5 0,-14.52 8.04,-26.27 19.79,-26.27 11.87,0 20.15,11.75 20.15,26.5 0,11.64 -5.64,26.27 -19.91,26.27 z m 30.11,-25.9 c 0,-24.35 -16.08,-34.67 -30.59,-34.67 -16.79,0 -29.74,12.59 -29.74,33.7 0,22.31 13.91,34.67 30.58,34.67 17.87,0 29.75,-13.68 29.75,-33.7"
         style="fill:#0e0f0f;fill-opacity:1;fill-rule:nonzero;stroke:none"
         id="path91" /><path
         d="m 5873.54,5093.23 h -9.84 v 37.78 c 0,12.72 -4.56,20.87 -14.38,20.87 -8.05,0 -15.36,-7.55 -15.36,-17.51 v -41.14 h -9.84 v 40.3 c 0,10.43 -4.43,18.35 -13.67,18.35 -8.52,0 -16.07,-8.39 -16.07,-18.59 v -40.06 h -9.83 v 48.58 c 0,6.71 -0.24,11.51 -0.49,16.9 h 8.76 l 0.6,-10.55 h 0.36 c 3.6,6.36 9.6,12 19.91,12 8.52,0 15.12,-5.28 17.87,-13.07 h 0.24 c 4.31,7.79 10.91,13.07 20.99,13.07 8.03,0 20.75,-5.16 20.75,-27.59 v -39.34"
         style="fill:#0e0f0f;fill-opacity:1;fill-rule:nonzero;stroke:none"
         id="path93" /><path
         d="m 5896.87,5087.84 h -8.04 l 38.03,98.22 h 8.27 l -38.26,-98.22"
         style="fill:#0e0f0f;fill-opacity:1;fill-rule:nonzero;stroke:none"
         id="path95" /><path
         d="m 2336.82,53.25 c -4.8,-3.2383 -11.03,-4.3086 -16.67,-4.3086 -15.71,0 -24.83,10.7891 -24.83,24.5781 0,15.711 12.24,25.3125 25.79,25.3125 7.07,0 13.07,-2.1601 14.87,-3.6093 l -1.44,-5.0313 c -1.92,0.9609 -6.6,3.2383 -13.19,3.2383 -13.07,0 -19.43,-8.6406 -19.43,-19.5508 0,-10.7891 6.83,-19.5469 19.55,-19.5469 5.52,0 10.55,1.6797 13.79,3.7188 z m -19.07,-15.7109 c 20.39,-0.1172 34.54,16.9101 34.54,36.7031 0,19.2969 -13.79,36.5778 -34.42,36.5778 -19.43,0 -34.78,-15.7106 -34.78,-36.9411 0,-21.2266 15.95,-36.3398 34.66,-36.3398 z m 0.12,78.4409 c 23.03,0 40.78,-18.6011 40.78,-41.6206 0,-23.3867 -17.75,-42.0899 -40.78,-42.0899 -23.15,0 -41.14,18.7032 -41.14,41.9727 0,26.8598 21.95,41.7378 41.14,41.7378"
         style="fill:#0e0f0f;fill-opacity:1;fill-rule:nonzero;stroke:none"
         id="path97" /><path
         d="m 2454.55,108.301 c -2.64,1.679 -8.39,4.199 -16.07,4.199 -12.71,0 -17.51,-7.801 -17.51,-14.3906 0,-9 5.51,-13.5586 17.75,-18.7188 14.75,-6.2383 22.31,-13.7812 22.31,-26.8593 0,-14.5118 -10.56,-25.6719 -30.22,-25.6719 -8.28,0 -17.27,2.5234 -21.84,5.7617 l 2.76,8.2812 c 4.92,-3.2421 12.24,-5.6406 19.68,-5.6406 12.23,0 19.42,6.5977 19.42,16.4297 0,8.9883 -4.91,14.5078 -16.79,19.3086 -13.79,5.1523 -23.15,13.1914 -23.15,25.7891 0,13.9099 11.28,24.1019 27.95,24.1019 8.64,0 15.23,-2.161 18.71,-4.321 l -3,-8.269"
         style="fill:#0e0f0f;fill-opacity:1;fill-rule:nonzero;stroke:none"
         id="path99" /><path
         d="m 2508.07,87.3125 c -14.15,0 -20.03,-13.9102 -20.03,-26.5117 0,-14.5117 8.04,-26.2617 19.79,-26.2617 11.88,0 20.15,11.75 20.15,26.5 0,11.6406 -5.64,26.2734 -19.91,26.2734 z m 30.11,-25.9023 c 0,-24.3477 -16.08,-34.6602 -30.59,-34.6602 -16.79,0 -29.74,12.5898 -29.74,33.6992 0,22.3008 13.91,34.6602 30.58,34.6602 17.87,0 29.75,-13.668 29.75,-33.6992"
         style="fill:#0e0f0f;fill-opacity:1;fill-rule:nonzero;stroke:none"
         id="path101" /><path
         d="M 2601.67,93.5391 V 87.1914 L 2571.8,46.4219 c -2.52,-3.4805 -4.92,-6.6094 -7.56,-9.8399 v -0.2422 h 37.78 v -8.1601 h -50.25 v 6 l 30.11,41.0195 c 2.63,3.4727 5.03,6.6016 7.79,9.961 v 0.2304 h -35.14 v 8.1485 h 47.14"
         style="fill:#0e0f0f;fill-opacity:1;fill-rule:nonzero;stroke:none"
         id="path103" /><path
         d="m 2653.15,62.1289 c -12.35,0 -27.83,-1.8086 -27.83,-15.5976 0,-8.3985 5.28,-12.1094 11.28,-12.1094 9.71,0 16.55,7.4375 16.55,15.3594 z m 9.83,-18.3476 c 0,-5.4024 0.13,-11.0391 0.96,-15.6016 h -9.11 l -0.96,8.4023 h -0.36 c -3.36,-5.1523 -10.08,-9.832 -19.31,-9.832 -12.48,0 -19.07,9.1094 -19.07,18.582 0,15.7071 13.67,24.2305 37.9,24.1094 0,5.5195 0,17.9883 -14.88,17.9883 -5.63,0 -11.51,-1.5586 -15.94,-4.6797 l -2.41,6.8398 c 5.28,3.4805 12.6,5.5196 19.92,5.5196 18.46,0 23.26,-13.0781 23.26,-26.0274 V 43.7813"
         style="fill:#0e0f0f;fill-opacity:1;fill-rule:nonzero;stroke:none"
         id="path105" /><path
         d="m 2698.16,28.1797 h -9.95 v 65.3594 h 9.95 z m -5.03,76.8833 c -3.84,0 -6.48,3 -6.48,6.828 0,3.718 2.76,6.718 6.6,6.718 3.95,0 6.47,-3 6.47,-6.718 0,-4.192 -2.76,-6.828 -6.59,-6.828"
         style="fill:#0e0f0f;fill-opacity:1;fill-rule:nonzero;stroke:none"
         id="path107" /><path
         d="m 2768.1,30.5898 c -2.88,-1.4492 -9.35,-3.7304 -17.75,-3.7304 -18.71,0 -31.06,13.3203 -31.06,33.3398 0,20.1524 13.31,34.9102 33.46,34.9102 7.31,0 13.19,-2.1602 15.71,-3.4805 l -2.52,-8.0391 c -2.76,1.5704 -7.07,3.3594 -13.43,3.3594 -15.11,0 -23.03,-12.1172 -23.03,-26.1484 0,-15.832 9.48,-25.7813 22.67,-25.7813 6.48,0 10.92,1.8008 14.15,3.2422 l 1.8,-7.6719"
         style="fill:#0e0f0f;fill-opacity:1;fill-rule:nonzero;stroke:none"
         id="path109" /><path
         d="m 2865.3,65.7188 -9,27.1132 c -1.92,6.2266 -3.47,11.988 -4.67,17.379 h -0.37 c -1.19,-5.512 -2.87,-11.2618 -4.55,-17.0313 l -9.12,-27.4609 z m 22.42,-37.5391 h -10.55 l -9.83,29.6211 h -31.78 l -9.6,-29.6211 h -10.19 l 30.22,91.3903 h 11.51 l 30.22,-91.3903"
         style="fill:#0e0f0f;fill-opacity:1;fill-rule:nonzero;stroke:none"
         id="path111" /><path
         d="m 2916.68,28.1797 h -9.96 v 95.9493 h 9.96 V 28.1797"
         style="fill:#0e0f0f;fill-opacity:1;fill-rule:nonzero;stroke:none"
         id="path113" /><path
         d="m 2952.44,28.1797 h -9.95 v 95.9493 h 9.95 V 28.1797"
         style="fill:#0e0f0f;fill-opacity:1;fill-rule:nonzero;stroke:none"
         id="path115" /><path
         d="m 3034.27,76.2813 c 12.71,0 20.87,7.1992 20.87,18.2304 0,13.5513 -10.2,17.7503 -21.36,17.7503 -5.39,0 -9.23,-0.481 -11.27,-0.961 V 76.2813 Z m 13.91,-4.3204 c 7.07,-2.2812 11.27,-9.1211 13.43,-19.0703 2.88,-13.1914 4.92,-21.2304 6.72,-24.7109 h -10.32 c -1.44,2.6406 -3.47,10.6797 -5.88,22.0703 -2.63,12.7188 -7.67,18.3516 -18.46,18.3516 h -11.16 V 28.1797 h -9.95 V 118.25 c 5.63,1.199 13.55,1.93 20.75,1.93 11.87,0 19.66,-2.41 25.06,-7.45 4.32,-3.949 6.84,-10.191 6.84,-17.0308 0,-12.1094 -7.32,-19.8984 -17.03,-23.3789 v -0.3594"
         style="fill:#0e0f0f;fill-opacity:1;fill-rule:nonzero;stroke:none"
         id="path117" /><path
         d="m 3097.28,28.1797 h -9.96 v 65.3594 h 9.96 z m -5.04,76.8833 c -3.84,0 -6.48,3 -6.48,6.828 0,3.718 2.76,6.718 6.6,6.718 3.95,0 6.47,-3 6.47,-6.718 0,-4.192 -2.76,-6.828 -6.59,-6.828"
         style="fill:#0e0f0f;fill-opacity:1;fill-rule:nonzero;stroke:none"
         id="path119" /><path
         d="m 3165.53,68.4805 c 0,11.3906 -8.27,18.5898 -17.39,18.5898 -11.51,0 -19.55,-10.1992 -19.55,-26.0312 0,-13.9102 6.72,-24.8203 19.43,-24.8203 7.44,0 17.51,5.6406 17.51,19.1914 z m 10.68,25.1914 c -0.36,-4.6797 -0.6,-9.961 -0.6,-18 V 37.5391 C 3175.61,26.1406 3175.37,0 3144.42,0 c -7.43,0 -15.59,1.80078 -20.5,5.16016 l 2.63,7.78904 c 4.2,-2.5195 10.56,-4.91014 18.35,-4.91014 12,0 20.75,6.35154 20.75,23.62114 v 7.789 h -0.23 c -3.36,-6.1094 -10.32,-11.1484 -20.27,-11.1484 -15.6,0 -26.75,13.8008 -26.75,32.1484 0,22.6602 14.15,34.6602 28.3,34.6602 11.16,0 17.04,-6 19.79,-11.2774 h 0.24 l 0.48,9.8399 h 9"
         style="fill:#0e0f0f;fill-opacity:1;fill-rule:nonzero;stroke:none"
         id="path121" /><path
         d="m 3253.6,28.1797 h -9.95 v 38.6328 c 0,10.668 -3.84,19.8984 -15.11,19.8984 -7.68,0 -17.27,-6.3593 -17.27,-18.3515 V 28.1797 h -9.96 v 95.9493 h 9.96 V 83.4805 h 0.24 c 4.32,7.1914 12.23,11.6289 20.27,11.6289 8.03,0 21.82,-4.918 21.82,-27.1094 V 28.1797"
         style="fill:#0e0f0f;fill-opacity:1;fill-rule:nonzero;stroke:none"
         id="path123" /><path
         d="m 3281.59,105.422 9.84,3.359 V 93.5391 h 16.91 V 85.75 h -16.91 V 47.9688 c 0,-8.2696 2.52,-12.8282 8.87,-12.8282 3,0 5.04,0.3594 6.72,0.961 l 0.6,-7.6719 c -2.16,-0.9688 -5.52,-1.5703 -9.71,-1.5703 -15.83,0 -16.32,14.4023 -16.32,21.3515 V 85.75 h -10.07 v 7.7891 h 10.07 v 11.8829"
         style="fill:#0e0f0f;fill-opacity:1;fill-rule:nonzero;stroke:none"
         id="path125" /><path
         d="m 3358.02,83.5898 c -2.4,1.5704 -6.84,3.8399 -12.72,3.8399 -7.19,0 -11.03,-4.4297 -11.03,-9.7188 0,-5.6289 3.72,-8.2695 12.11,-11.8711 10.55,-4.3203 16.67,-9.8281 16.67,-19.6679 0,-11.6328 -8.87,-19.3125 -23.14,-19.3125 -6.48,0 -12.72,1.8008 -17.16,4.4414 l 2.76,7.6719 c 3.48,-2.0313 9.12,-4.4336 14.75,-4.4336 8.76,0 13.08,4.6797 13.08,10.5625 0,6.1093 -3.48,9.4687 -12.11,12.9492 -11.04,4.4297 -16.67,10.5508 -16.67,18.4609 0,10.1992 8.15,18.5977 21.34,18.5977 6.24,0 11.52,-1.7969 14.99,-3.9571 l -2.87,-7.5625"
         style="fill:#0e0f0f;fill-opacity:1;fill-rule:nonzero;stroke:none"
         id="path127" /><path
         d="m 3440.34,76.2813 c 12.71,0 20.87,7.1992 20.87,18.2304 0,13.5513 -10.19,17.7503 -21.35,17.7503 -5.4,0 -9.23,-0.481 -11.28,-0.961 V 76.2813 Z m 13.91,-4.3204 c 7.08,-2.2812 11.28,-9.1211 13.44,-19.0703 2.87,-13.1914 4.91,-21.2304 6.71,-24.7109 h -10.31 c -1.44,2.6406 -3.48,10.6797 -5.88,22.0703 -2.64,12.7188 -7.68,18.3516 -18.47,18.3516 h -11.16 V 28.1797 h -9.95 V 118.25 c 5.64,1.199 13.55,1.93 20.75,1.93 11.87,0 19.67,-2.41 25.07,-7.45 4.31,-3.949 6.83,-10.191 6.83,-17.0308 0,-12.1094 -7.32,-19.8984 -17.03,-23.3789 v -0.3594"
         style="fill:#0e0f0f;fill-opacity:1;fill-rule:nonzero;stroke:none"
         id="path129" /><path
         d="m 3533.33,67.1602 c 0.12,8.8711 -3.59,20.3906 -16.43,20.3906 -11.99,0 -17.27,-11.3985 -18.23,-20.3906 z m 6.36,-36.2188 c -3.72,-1.8008 -10.55,-4.082 -20.51,-4.082 -19.07,0 -30.46,13.4297 -30.46,32.9804 0,20.5118 11.51,35.2696 29.14,35.2696 20.15,0 25.31,-18.4688 25.31,-29.8672 0,-2.2734 -0.12,-3.9531 -0.25,-5.5117 h -44.49 c 0.12,-18.1094 10.44,-24.9492 22.19,-24.9492 8.15,0 13.07,1.6679 17.15,3.3515 l 1.92,-7.1914"
         style="fill:#0e0f0f;fill-opacity:1;fill-rule:nonzero;stroke:none"
         id="path131" /><path
         d="m 3594.66,83.5898 c -2.4,1.5704 -6.84,3.8399 -12.72,3.8399 -7.19,0 -11.03,-4.4297 -11.03,-9.7188 0,-5.6289 3.72,-8.2695 12.11,-11.8711 10.55,-4.3203 16.67,-9.8281 16.67,-19.6679 0,-11.6328 -8.87,-19.3125 -23.14,-19.3125 -6.48,0 -12.72,1.8008 -17.16,4.4414 l 2.76,7.6719 c 3.48,-2.0313 9.12,-4.4336 14.75,-4.4336 8.76,0 13.08,4.6797 13.08,10.5625 0,6.1093 -3.48,9.4687 -12.11,12.9492 -11.04,4.4297 -16.67,10.5508 -16.67,18.4609 0,10.1992 8.15,18.5977 21.34,18.5977 6.24,0 11.52,-1.7969 14.99,-3.9571 l -2.87,-7.5625"
         style="fill:#0e0f0f;fill-opacity:1;fill-rule:nonzero;stroke:none"
         id="path133" /><path
         d="m 3660.88,67.1602 c 0.13,8.8711 -3.59,20.3906 -16.43,20.3906 -11.99,0 -17.27,-11.3985 -18.22,-20.3906 z m 6.36,-36.2188 c -3.71,-1.8008 -10.55,-4.082 -20.51,-4.082 -19.06,0 -30.46,13.4297 -30.46,32.9804 0,20.5118 11.51,35.2696 29.15,35.2696 20.14,0 25.3,-18.4688 25.3,-29.8672 0,-2.2734 -0.12,-3.9531 -0.24,-5.5117 h -44.49 c 0.11,-18.1094 10.43,-24.9492 22.18,-24.9492 8.16,0 13.08,1.6679 17.15,3.3515 l 1.92,-7.1914"
         style="fill:#0e0f0f;fill-opacity:1;fill-rule:nonzero;stroke:none"
         id="path135" /><path
         d="m 3721.49,85.1602 c -1.08,0.1093 -2.16,0.2304 -3.6,0.2304 -10.79,0 -16.31,-10.6679 -16.31,-21.7109 v -35.5 h -9.95 v 45.8125 c 0,6.9687 -0.12,13.3203 -0.48,19.5469 h 8.75 l 0.48,-12.5782 h 0.36 c 2.88,8.1485 9.71,14.0313 17.75,14.0313 1.08,0 1.92,-0.2422 3,-0.3633 v -9.4687"
         style="fill:#0e0f0f;fill-opacity:1;fill-rule:nonzero;stroke:none"
         id="path137" /><path
         d="m 3789.4,93.5391 -24.83,-65.3594 h -9.36 l -24.1,65.4922 h 10.68 l 13.07,-38.0313 c 2.03,-5.8593 3.84,-11.3789 5.28,-16.7812 h 0.35 c 1.44,5.4023 3.36,10.9219 5.4,16.7812 l 12.95,37.8985 h 10.56"
         style="fill:#0e0f0f;fill-opacity:1;fill-rule:nonzero;stroke:none"
         id="path139" /><path
         d="m 3846.64,67.1602 c 0.12,8.8711 -3.59,20.3906 -16.43,20.3906 -11.99,0 -17.27,-11.3985 -18.23,-20.3906 z M 3853,30.9414 c -3.72,-1.8008 -10.55,-4.082 -20.51,-4.082 -19.07,0 -30.46,13.4297 -30.46,32.9804 0,20.5118 11.51,35.2696 29.14,35.2696 20.15,0 25.31,-18.4688 25.31,-29.8672 0,-2.2734 -0.12,-3.9531 -0.24,-5.5117 h -44.5 c 0.12,-18.1094 10.44,-24.9492 22.19,-24.9492 8.15,0 13.07,1.6679 17.15,3.3515 l 1.92,-7.1914"
         style="fill:#0e0f0f;fill-opacity:1;fill-rule:nonzero;stroke:none"
         id="path141" /><path
         d="m 3920.2,67.4023 c 0,13.0782 -9.23,19.5469 -17.63,19.5469 -12.36,0 -19.67,-11.5078 -19.67,-26.5 0,-13.7969 6.48,-25.5469 19.31,-25.5469 10.79,0 17.99,9.4688 17.99,19.8985 z m 9.96,-23.0312 c 0,-5.2695 0.24,-11.75 0.47,-16.1914 h -8.87 l -0.48,11.1601 h -0.36 C 3917.56,32.5 3910.13,26.75 3899.57,26.75 c -15.11,0 -26.86,13.0625 -26.86,33.2188 0,22.0625 12.95,35.0234 28.18,35.0234 9.59,0 16.07,-4.6836 19.07,-10.082 h 0.24 v 39.2188 h 9.96 V 44.3711"
         style="fill:#0e0f0f;fill-opacity:1;fill-rule:nonzero;stroke:none"
         id="path143" /><path
         d="m 3953.1,34.3008 c 0,4.5586 3,7.8008 7.2,7.8008 4.2,0 7.07,-3.2422 7.07,-7.8008 0,-4.3203 -2.76,-7.5508 -7.19,-7.5508 -4.56,0 -7.08,3.5898 -7.08,7.5508"
         style="fill:#0e0f0f;fill-opacity:1;fill-rule:nonzero;stroke:none"
         id="path145" /><path
         d="M 6250,4893.21 H 0 v 10 h 6250 v -10"
         style="fill:#303032;fill-opacity:1;fill-rule:nonzero;stroke:none"
         id="path147" /><path
         d="M 4713.16,2795.65 H 1553.08 V 1722.82 h 3160.08 v 1072.83"
         style="fill:#bfb290;fill-opacity:1;fill-rule:nonzero;stroke:none"
         id="path149" /><path
         d="M 4759.64,2582.83 H 1548.55 v 46.88 h 3211.09 v -46.88"
         style="fill:#bf1b2c;fill-opacity:1;fill-rule:nonzero;stroke:none"
         id="path151" /><path
         d="M 4747.5,2379.71 H 1494.46 v 55.99 H 4747.5 v -55.99"
         style="fill:#bf1b2c;fill-opacity:1;fill-rule:nonzero;stroke:none"
         id="path153" /><path
         d="M 4713.16,1906 H 1536.41 V 1642.22 H 4713.16 V 1906"
         style="fill:#393536;fill-opacity:1;fill-rule:nonzero;stroke:none"
         id="path155" /><path
         d="m 4294.24,2369.33 h 293.94 V 1906 h -293.94 z"
         style="fill:none;stroke:#393536;stroke-width:30;stroke-linecap:butt;stroke-linejoin:miter;stroke-miterlimit:10;stroke-dasharray:none;stroke-opacity:1"
         id="path157" /><path
         d="m 4294.24,2021.83 h 293.94"
         style="fill:none;stroke:#393536;stroke-width:30;stroke-linecap:butt;stroke-linejoin:miter;stroke-miterlimit:10;stroke-dasharray:none;stroke-opacity:1"
         id="path159" /><path
         d="m 4294.24,2137.67 h 293.94"
         style="fill:none;stroke:#393536;stroke-width:30;stroke-linecap:butt;stroke-linejoin:miter;stroke-miterlimit:10;stroke-dasharray:none;stroke-opacity:1"
         id="path161" /><path
         d="m 4294.24,2253.5 h 293.94"
         style="fill:none;stroke:#393536;stroke-width:30;stroke-linecap:butt;stroke-linejoin:miter;stroke-miterlimit:10;stroke-dasharray:none;stroke-opacity:1"
         id="path163" /><path
         d="M 4529.39,2369.33 V 1906"
         style="fill:none;stroke:#393536;stroke-width:30;stroke-linecap:butt;stroke-linejoin:miter;stroke-miterlimit:10;stroke-dasharray:none;stroke-opacity:1"
         id="path165" /><path
         d="M 4470.61,2369.33 V 1906"
         style="fill:none;stroke:#393536;stroke-width:30;stroke-linecap:butt;stroke-linejoin:miter;stroke-miterlimit:10;stroke-dasharray:none;stroke-opacity:1"
         id="path167" /><path
         d="M 4411.82,2369.33 V 1906"
         style="fill:none;stroke:#393536;stroke-width:30;stroke-linecap:butt;stroke-linejoin:miter;stroke-miterlimit:10;stroke-dasharray:none;stroke-opacity:1"
         id="path169" /><path
         d="M 4353.03,2369.33 V 1906"
         style="fill:none;stroke:#393536;stroke-width:30;stroke-linecap:butt;stroke-linejoin:miter;stroke-miterlimit:10;stroke-dasharray:none;stroke-opacity:1"
         id="path171" /><path
         d="m 1662.83,2369.33 h 293.93 V 1906 h -293.93 z"
         style="fill:none;stroke:#393536;stroke-width:30;stroke-linecap:butt;stroke-linejoin:miter;stroke-miterlimit:10;stroke-dasharray:none;stroke-opacity:1"
         id="path173" /><path
         d="m 1662.83,2021.83 h 293.93"
         style="fill:none;stroke:#393536;stroke-width:30;stroke-linecap:butt;stroke-linejoin:miter;stroke-miterlimit:10;stroke-dasharray:none;stroke-opacity:1"
         id="path175" /><path
         d="m 1662.83,2137.67 h 293.93"
         style="fill:none;stroke:#393536;stroke-width:30;stroke-linecap:butt;stroke-linejoin:miter;stroke-miterlimit:10;stroke-dasharray:none;stroke-opacity:1"
         id="path177" /><path
         d="m 1662.83,2253.5 h 293.93"
         style="fill:none;stroke:#393536;stroke-width:30;stroke-linecap:butt;stroke-linejoin:miter;stroke-miterlimit:10;stroke-dasharray:none;stroke-opacity:1"
         id="path179" /><path
         d="M 1897.98,2369.33 V 1906"
         style="fill:none;stroke:#393536;stroke-width:30;stroke-linecap:butt;stroke-linejoin:miter;stroke-miterlimit:10;stroke-dasharray:none;stroke-opacity:1"
         id="path181" /><path
         d="M 1839.19,2369.33 V 1906"
         style="fill:none;stroke:#393536;stroke-width:30;stroke-linecap:butt;stroke-linejoin:miter;stroke-miterlimit:10;stroke-dasharray:none;stroke-opacity:1"
         id="path183" /><path
         d="M 1780.4,2369.33 V 1906"
         style="fill:none;stroke:#393536;stroke-width:30;stroke-linecap:butt;stroke-linejoin:miter;stroke-miterlimit:10;stroke-dasharray:none;stroke-opacity:1"
         id="path185" /><path
         d="M 1721.62,2369.33 V 1906"
         style="fill:none;stroke:#393536;stroke-width:30;stroke-linecap:butt;stroke-linejoin:miter;stroke-miterlimit:10;stroke-dasharray:none;stroke-opacity:1"
         id="path187" /><path
         d="m 1578.35,1642.22 h -201.12 v 1153.43 h 201.12 V 1642.22"
         style="fill:#bf1b2c;fill-opacity:1;fill-rule:nonzero;stroke:none"
         id="path189" /><path
         d="m 4872.77,1642.22 h -201.12 v 1153.43 h 201.12 V 1642.22"
         style="fill:#bf1b2c;fill-opacity:1;fill-rule:nonzero;stroke:none"
         id="path191" /><path
         d="m 2124.23,1642.22 h -83.88 v 1153.43 h 83.88 V 1642.22"
         style="fill:#bf1b2c;fill-opacity:1;fill-rule:nonzero;stroke:none"
         id="path193" /><path
         d="m 2519.42,1642.22 h -83.89 v 1153.43 h 83.89 V 1642.22"
         style="fill:#bf1b2c;fill-opacity:1;fill-rule:nonzero;stroke:none"
         id="path195" /><path
         d="m 3809.03,1642.22 h -83.89 v 1153.43 h 83.89 V 1642.22"
         style="fill:#bf1b2c;fill-opacity:1;fill-rule:nonzero;stroke:none"
         id="path197" /><path
         d="m 4205.22,1642.22 h -83.89 v 1153.43 h 83.89 V 1642.22"
         style="fill:#bf1b2c;fill-opacity:1;fill-rule:nonzero;stroke:none"
         id="path199" /><path
         d="M 3671.8,2582.83 H 2578.2 v -932.5 h 1093.6 v 932.5"
         style="fill:#393536;fill-opacity:1;fill-rule:nonzero;stroke:none"
         id="path201" /><path
         d="M 3798.23,2425.32 H 2456.72 v 204.39 h 1341.51 v -204.39"
         style="fill:#bf1b2c;fill-opacity:1;fill-rule:nonzero;stroke:none"
         id="path203" /><path
         d="M 5360.07,1644.05 H 879.184 V 1048.93 H 5360.07 v 595.12"
         style="fill:#656263;fill-opacity:1;fill-rule:nonzero;stroke:none"
         id="path205" /><path
         d="M 5407.45,1644.05 H 842.551 V 1439.23 H 5407.45 v 204.82"
         style="fill:#52423b;fill-opacity:1;fill-rule:nonzero;stroke:none"
         id="path207" /><path
         d="M 879.184,1815.69 H 2458.76 V 1629.95 H 879.184 Z"
         style="fill:none;stroke:#992232;stroke-width:50;stroke-linecap:butt;stroke-linejoin:miter;stroke-miterlimit:10;stroke-dasharray:none;stroke-opacity:1"
         id="path209" /><path
         d="M 879.184,1691.86 H 2458.76"
         style="fill:none;stroke:#992232;stroke-width:50;stroke-linecap:butt;stroke-linejoin:miter;stroke-miterlimit:10;stroke-dasharray:none;stroke-opacity:1"
         id="path211" /><path
         d="M 879.184,1753.78 H 2458.76"
         style="fill:none;stroke:#992232;stroke-width:50;stroke-linecap:butt;stroke-linejoin:miter;stroke-miterlimit:10;stroke-dasharray:none;stroke-opacity:1"
         id="path213" /><path
         d="M 879.184,1815.69 H 2458.76"
         style="fill:none;stroke:#992232;stroke-width:50;stroke-linecap:butt;stroke-linejoin:miter;stroke-miterlimit:10;stroke-dasharray:none;stroke-opacity:1"
         id="path215" /><path
         d="M 2142.85,1877.61 V 1629.95"
         style="fill:none;stroke:#992232;stroke-width:50;stroke-linecap:butt;stroke-linejoin:miter;stroke-miterlimit:10;stroke-dasharray:none;stroke-opacity:1"
         id="path217" /><path
         d="M 2459.44,1877.61 V 1629.95"
         style="fill:none;stroke:#992232;stroke-width:50;stroke-linecap:butt;stroke-linejoin:miter;stroke-miterlimit:10;stroke-dasharray:none;stroke-opacity:1"
         id="path219" /><path
         d="M 1826.93,1877.61 V 1629.95"
         style="fill:none;stroke:#992232;stroke-width:50;stroke-linecap:butt;stroke-linejoin:miter;stroke-miterlimit:10;stroke-dasharray:none;stroke-opacity:1"
         id="path221" /><path
         d="M 1511.02,1877.61 V 1629.95"
         style="fill:none;stroke:#992232;stroke-width:50;stroke-linecap:butt;stroke-linejoin:miter;stroke-miterlimit:10;stroke-dasharray:none;stroke-opacity:1"
         id="path223" /><path
         d="M 1195.1,1877.61 V 1629.95"
         style="fill:none;stroke:#992232;stroke-width:50;stroke-linecap:butt;stroke-linejoin:miter;stroke-miterlimit:10;stroke-dasharray:none;stroke-opacity:1"
         id="path225" /><path
         d="M 878.496,1877.61 V 1629.95"
         style="fill:none;stroke:#992232;stroke-width:50;stroke-linecap:butt;stroke-linejoin:miter;stroke-miterlimit:10;stroke-dasharray:none;stroke-opacity:1"
         id="path227" /><path
         d="M 3790.87,1815.69 H 5370.45 V 1629.95 H 3790.87 Z"
         style="fill:none;stroke:#992232;stroke-width:50;stroke-linecap:butt;stroke-linejoin:miter;stroke-miterlimit:10;stroke-dasharray:none;stroke-opacity:1"
         id="path229" /><path
         d="M 3790.87,1691.86 H 5370.45"
         style="fill:none;stroke:#992232;stroke-width:50;stroke-linecap:butt;stroke-linejoin:miter;stroke-miterlimit:10;stroke-dasharray:none;stroke-opacity:1"
         id="path231" /><path
         d="M 3790.87,1753.78 H 5370.45"
         style="fill:none;stroke:#992232;stroke-width:50;stroke-linecap:butt;stroke-linejoin:miter;stroke-miterlimit:10;stroke-dasharray:none;stroke-opacity:1"
         id="path233" /><path
         d="M 3790.87,1815.69 H 5370.45"
         style="fill:none;stroke:#992232;stroke-width:50;stroke-linecap:butt;stroke-linejoin:miter;stroke-miterlimit:10;stroke-dasharray:none;stroke-opacity:1"
         id="path235" /><path
         d="M 5054.53,1877.61 V 1629.95"
         style="fill:none;stroke:#992232;stroke-width:50;stroke-linecap:butt;stroke-linejoin:miter;stroke-miterlimit:10;stroke-dasharray:none;stroke-opacity:1"
         id="path237" /><path
         d="M 5371.13,1877.61 V 1629.95"
         style="fill:none;stroke:#992232;stroke-width:50;stroke-linecap:butt;stroke-linejoin:miter;stroke-miterlimit:10;stroke-dasharray:none;stroke-opacity:1"
         id="path239" /><path
         d="M 4738.61,1877.61 V 1629.95"
         style="fill:none;stroke:#992232;stroke-width:50;stroke-linecap:butt;stroke-linejoin:miter;stroke-miterlimit:10;stroke-dasharray:none;stroke-opacity:1"
         id="path241" /><path
         d="M 4422.7,1877.61 V 1629.95"
         style="fill:none;stroke:#992232;stroke-width:50;stroke-linecap:butt;stroke-linejoin:miter;stroke-miterlimit:10;stroke-dasharray:none;stroke-opacity:1"
         id="path243" /><path
         d="M 4106.78,1877.61 V 1629.95"
         style="fill:none;stroke:#992232;stroke-width:50;stroke-linecap:butt;stroke-linejoin:miter;stroke-miterlimit:10;stroke-dasharray:none;stroke-opacity:1"
         id="path245" /><path
         d="M 3790.19,1877.61 V 1629.95"
         style="fill:none;stroke:#992232;stroke-width:50;stroke-linecap:butt;stroke-linejoin:miter;stroke-miterlimit:10;stroke-dasharray:none;stroke-opacity:1"
         id="path247" /><path
         d="m 1221.05,1048.93 h -77.78 v 420.4 h 77.78 v -420.4"
         style="fill:#52423b;fill-opacity:1;fill-rule:nonzero;stroke:none"
         id="path249" /><path
         d="m 1589.55,1048.93 h -77.78 v 420.4 h 77.78 v -420.4"
         style="fill:#52423b;fill-opacity:1;fill-rule:nonzero;stroke:none"
         id="path251" /><path
         d="m 1958.05,1048.93 h -77.78 v 420.4 h 77.78 v -420.4"
         style="fill:#52423b;fill-opacity:1;fill-rule:nonzero;stroke:none"
         id="path253" /><path
         d="m 2326.56,1048.93 h -77.78 v 420.4 h 77.78 v -420.4"
         style="fill:#52423b;fill-opacity:1;fill-rule:nonzero;stroke:none"
         id="path255" /><path
         d="m 3971.84,1048.93 h -77.78 v 420.4 h 77.78 v -420.4"
         style="fill:#52423b;fill-opacity:1;fill-rule:nonzero;stroke:none"
         id="path257" /><path
         d="m 4340.34,1048.93 h -77.78 v 420.4 h 77.78 v -420.4"
         style="fill:#52423b;fill-opacity:1;fill-rule:nonzero;stroke:none"
         id="path259" /><path
         d="m 4708.85,1048.93 h -77.79 v 420.4 h 77.79 v -420.4"
         style="fill:#52423b;fill-opacity:1;fill-rule:nonzero;stroke:none"
         id="path261" /><path
         d="m 5077.34,1048.93 h -77.77 v 420.4 h 77.77 v -420.4"
         style="fill:#52423b;fill-opacity:1;fill-rule:nonzero;stroke:none"
         id="path263" /><path
         d="M 3906.71,1397.02 H 2347.49 v 144.62 h 1559.22 v -144.62"
         style="fill:#a7a5a6;fill-opacity:1;fill-rule:nonzero;stroke:none"
         id="path265" /><path
         d="M 3966.07,1251.7 H 2288.13 v 144.61 H 3966.07 V 1251.7"
         style="fill:#918f90;fill-opacity:1;fill-rule:nonzero;stroke:none"
         id="path267" /><path
         d="M 4029.27,1121.94 H 2224.93 v 144.62 h 1804.34 v -144.62"
         style="fill:#a7a5a6;fill-opacity:1;fill-rule:nonzero;stroke:none"
         id="path269" /><path
         d="M 4096.4,976.609 H 2157.8 V 1121.23 H 4096.4 V 976.609"
         style="fill:#918f90;fill-opacity:1;fill-rule:nonzero;stroke:none"
         id="path271" /><path
         d="m 3502.45,1715.81 h -754.38 v 359.2 h 754.38 v -359.2"
         style="fill:#845333;fill-opacity:1;fill-rule:nonzero;stroke:none"
         id="path273" /><path
         d="m 3526.03,2028.63 h -802.07 v 65.48 h 802.07 v -65.48"
         style="fill:#5a3114;fill-opacity:1;fill-rule:nonzero;stroke:none"
         id="path275" /><path
         d="m 3526.03,1754 h -802.07 v -103.67 h 122.26 l 27.78,21.24 27.78,-21.24 h 195.44 l 27.78,21.24 27.78,-21.24 h 195.44 l 27.78,21.24 27.78,-21.24 h 122.25 V 1754"
         style="fill:#5a3114;fill-opacity:1;fill-rule:nonzero;stroke:none"
         id="path277" /><path
         d="m 3162.36,1984.99 h -74.21 l -52.47,-52.48 v -74.2 l 52.47,-52.48 h 74.21 l 52.48,52.48 v 74.2 l -52.48,52.48"
         style="fill:#a47343;fill-opacity:1;fill-rule:nonzero;stroke:none"
         id="path279" /><path
         d="m 2786.89,2005.49 c 0,-5.75 -4.66,-10.41 -10.41,-10.41 -5.75,0 -10.42,4.66 -10.42,10.41 0,5.75 4.67,10.41 10.42,10.41 5.75,0 10.41,-4.66 10.41,-10.41"
         style="fill:#5a3114;fill-opacity:1;fill-rule:nonzero;stroke:none"
         id="path281" /><path
         d="m 2786.89,1781.33 c 0,-5.75 -4.66,-10.41 -10.41,-10.41 -5.75,0 -10.42,4.66 -10.42,10.41 0,5.75 4.67,10.41 10.42,10.41 5.75,0 10.41,-4.66 10.41,-10.41"
         style="fill:#5a3114;fill-opacity:1;fill-rule:nonzero;stroke:none"
         id="path283" /><path
         d="m 3484.04,2005.49 c 0,-5.75 -5.28,-10.41 -11.79,-10.41 -6.52,0 -11.8,4.66 -11.8,10.41 0,5.75 5.28,10.41 11.8,10.41 6.51,0 11.79,-4.66 11.79,-10.41"
         style="fill:#5a3114;fill-opacity:1;fill-rule:nonzero;stroke:none"
         id="path285" /><path
         d="m 3484.04,1781.33 c 0,-5.75 -5.28,-10.41 -11.79,-10.41 -6.52,0 -11.8,4.66 -11.8,10.41 0,5.75 5.28,10.41 11.8,10.41 6.51,0 11.79,-4.66 11.79,-10.41"
         style="fill:#5a3114;fill-opacity:1;fill-rule:nonzero;stroke:none"
         id="path287" /><path
         d="m 3078.43,2058.56 c -0.4,-5.81 -0.68,-11.91 1.09,-17.23 4.04,-12.18 16.4,-14.11 25.98,-10.93 9.58,3.19 19,9.7 28.77,7.84 3.47,-0.65 7.49,-3.68 7.19,-8.42 9.87,-2.28 20.15,-1.28 29.67,2.9 3.38,19.91 -5.68,39.24 -10.66,58.53 -8.58,33.27 -5.14,70.33 -12.64,104.08 -8.04,36.2 -42.9,20.88 -51.94,-2.2 -12.21,-31.2 -15.04,-98.99 -17.46,-134.57"
         style="fill:#bf1b2c;fill-opacity:1;fill-rule:nonzero;stroke:none"
         id="path289" /><path
         d="m 3152.86,2346.88 h -62.28 v 516.7 h 62.28 v -516.7"
         style="fill:#e3d9c6;fill-opacity:1;fill-rule:nonzero;stroke:none"
         id="path291" /><path
         d="m 3152.86,2832.45 h -62.28 v 31.13 h 62.28 v -31.13"
         style="fill:#992232;fill-opacity:1;fill-rule:nonzero;stroke:none"
         id="path293" /><path
         d="m 3152.86,2702.61 h -62.28 v 64.92 h 62.28 z m 0,-129.84 h -62.28 v 64.92 h 62.28 z m 0,-129.83 h -62.28 v 64.92 h 62.28 v -64.92"
         style="fill:#992232;fill-opacity:1;fill-rule:nonzero;stroke:none"
         id="path295" /><path
         d="m 3152.86,2346.88 h -62.28 v 31.14 h 62.28 v -31.14"
         style="fill:#992232;fill-opacity:1;fill-rule:nonzero;stroke:none"
         id="path297" /><path
         d="m 3158.42,2188.17 h -71.67 v 158.71 h 71.67 v -158.71"
         style="fill:#967e72;fill-opacity:1;fill-rule:nonzero;stroke:none"
         id="path299" /><path
         d="M 4835.58,3290.84 H 1414.42 l 89.37,504.9 h 3242.42 l 89.37,-504.9"
         style="fill:#456d6e;fill-opacity:1;fill-rule:nonzero;stroke:none"
         id="path301" /><path
         d="M 4796.8,3787.77 H 1453.21 v 115.6 H 4796.8 v -115.6"
         style="fill:#357671;fill-opacity:1;fill-rule:nonzero;stroke:none"
         id="path303" /><path
         d="M 4796.8,3840.47 H 1453.21 v 125.79 H 4796.8 v -125.79"
         style="fill:#394b4c;fill-opacity:1;fill-rule:nonzero;stroke:none"
         id="path305" /><path
         d="M 3125,3714.75 2294.84,3194.36 H 3955.16 Z"
         style="fill:#394b4c;fill-opacity:1;fill-rule:nonzero;stroke:none"
         id="path307" /><path
         d="M 3125,3627.57 2366.79,3194.36 H 3883.21 Z"
         style="fill:#4f4c4c;fill-opacity:1;fill-rule:nonzero;stroke:none"
         id="path309" /><path
         d="m 4931.03,3310.87 h -3343 l -605.104,-400.8 4523.884,-23.71 372.95,335.12 c 0,0 -682.32,-12.3 -948.73,89.39"
         style="fill:#456d6e;fill-opacity:1;fill-rule:nonzero;stroke:none"
         id="path311" /><path
         d="m 1308.08,3305.68 h 3304.63 l 598.17,-400.8 -4471.97,-23.71 -368.672,335.12 c 0,0 674.492,-12.3 937.842,89.39"
         style="fill:#456d6e;fill-opacity:1;fill-rule:nonzero;stroke:none"
         id="path313" /><path
         d="M 5304.43,2722.55 H 945.566 L 737.965,2894.5 H 5512.04 l -207.61,-171.95"
         style="fill:#394b4c;fill-opacity:1;fill-rule:nonzero;stroke:none"
         id="path315" /><path
         d="m 3187.1,3509.68 h -124.2 l -87.84,-87.83 v -124.21 l 87.84,-87.83 h 124.2 l 87.84,87.83 v 124.21 l -87.84,87.83"
         style="fill:#a47343;fill-opacity:1;fill-rule:nonzero;stroke:none"
         id="path317" /><path
         d="m 4677.15,3874.27 h -26.54 l -18.75,-18.76 v -26.53 l 18.75,-18.76 h 26.54 l 18.76,18.76 v 26.53 l -18.76,18.76"
         style="fill:#a47343;fill-opacity:1;fill-rule:nonzero;stroke:none"
         id="path319" /><path
         d="m 3651.23,3874.27 h -26.53 l -18.76,-18.76 v -26.53 l 18.76,-18.76 h 26.53 l 18.76,18.76 v 26.53 l -18.76,18.76"
         style="fill:#a47343;fill-opacity:1;fill-rule:nonzero;stroke:none"
         id="path321" /><path
         d="m 2625.3,3874.27 h -26.53 l -18.76,-18.76 v -26.53 l 18.76,-18.76 h 26.53 l 18.76,18.76 v 26.53 l -18.76,18.76"
         style="fill:#a47343;fill-opacity:1;fill-rule:nonzero;stroke:none"
         id="path323" /><path
         d="m 1599.38,3874.27 h -26.53 l -18.76,-18.76 v -26.53 l 18.76,-18.76 h 26.53 l 18.76,18.76 v 26.53 l -18.76,18.76"
         style="fill:#a47343;fill-opacity:1;fill-rule:nonzero;stroke:none"
         id="path325" /><path
         d="m 4894.36,4004.71 c 47.16,22.58 84.73,73.29 136.96,70.58 -36.54,-52.86 -74.3,-105.79 -122.93,-147.81 -47.04,-40.63 -118.57,-82.2 -182.38,-69.69 7.68,129.26 70.62,100.12 168.35,146.92"
         style="fill:#394b4c;fill-opacity:1;fill-rule:nonzero;stroke:none"
         id="path327" /><path
         d="m 1328.47,4004.71 c -47.17,22.58 -84.74,73.29 -136.97,70.58 36.54,-52.86 74.3,-105.79 122.93,-147.81 47.04,-40.63 118.57,-82.2 182.38,-69.69 -7.68,129.26 -70.62,100.12 -168.34,146.92"
         style="fill:#394b4c;fill-opacity:1;fill-rule:nonzero;stroke:none"
         id="path329" /><path
         d="m 3220.08,4041.03 c 0,-52.51 -42.57,-95.08 -95.08,-95.08 -52.51,0 -95.08,42.57 -95.08,95.08 0,52.51 42.57,95.08 95.08,95.08 52.51,0 95.08,-42.57 95.08,-95.08"
         style="fill:#394b4c;fill-opacity:1;fill-rule:nonzero;stroke:none"
         id="path331" /><path
         d="m 3144.82,3963.18 c 0,-52.52 -42.56,-95.08 -95.08,-95.08 -52.51,0 -95.08,42.56 -95.08,95.08 0,52.51 42.57,95.08 95.08,95.08 52.52,0 95.08,-42.57 95.08,-95.08"
         style="fill:#394b4c;fill-opacity:1;fill-rule:nonzero;stroke:none"
         id="path333" /><path
         d="m 3295.34,3963.18 c 0,-52.52 -42.57,-95.08 -95.08,-95.08 -52.52,0 -95.08,42.56 -95.08,95.08 0,52.51 42.56,95.08 95.08,95.08 52.51,0 95.08,-42.57 95.08,-95.08"
         style="fill:#394b4c;fill-opacity:1;fill-rule:nonzero;stroke:none"
         id="path335" /></g></g></svg>
